<svg xmlns="http://www.w3.org/2000/svg" xmlns:xlink="http://www.w3.org/1999/xlink" viewBox="0 0 300 300"><style>.taco{fill:#FFFFFF;stroke:#BDCCD4;stroke-miterlimit:10;} .st1{display:none;}</style><symbol id="Taco" viewBox="-22.7 -37.8 45.4 75"><path id="salad" class="taco" d="M-20.8 28.4c2.7 2.5 5.8 1.7 7.6.8.5-.2 1.1.2.9.7-.6 2.4-.8 6.9 6.5 6.9 6 0 6-7.4 6-7.4s0 7.4 4 7.4c2.3 0 3.3-1.6 3.7-2.9.2-.9 1.2-1.3 2-.9 2.7 1.2 7.8 2.6 9.2-2.8.7-2.1-.2-3.7-1.5-4.7-.5-.4-.3-1.2.4-1.4 2.3-.6 4.2-1.1 4.2-3.2 0-2.8-3-5.6-3-5.6L.2-3.2l-19 18.6s-6 8.3-2 13z"/><circle id="tomato_30_" class="taco" cx="7.7" cy="14.2" r="8"/><circle id="tomato" class="taco" cx="-6.3" cy="16.2" r="8"/><path id="beef" class="taco" d="M9.2 11.8c0 1.1-.9 2-2 2h-.3c.2.3.3.7.3 1 0 1.1-.9 2-2 2-.4 0-.7-.1-1-.3v.3c0 1.1-.9 2-2 2-.6 0-1.1-.3-1.5-.7-.4.4-.9.7-1.5.7-.9 0-1.6-.6-1.9-1.3-.3.2-.7.3-1.1.3-1.1 0-2-.9-2-2v-.3c-.3.2-.7.3-1 .3-1.1 0-2-.9-2-2 0-.4.1-.8.3-1.1-.8-.3-1.3-1-1.3-1.9 0-1.1.9-2 2-2 0-1.1.9-2 2-2 .4 0 .7.1 1 .3v-.3c0-1.1.9-2 2-2 .4 0 .8.1 1.1.3.3-.8 1-1.3 1.9-1.3.6 0 1.1.3 1.5.7.4-.5.9-.7 1.5-.7 1.1 0 2 .9 2 2 0 .4-.1.7-.3 1 .1.1.1.2.2.3.3-.2.7-.3 1.1-.3 1.1 0 2 .9 2 2 0 .4-.1.8-.3 1.1.7.2 1.3 1 1.3 1.9zm-6 3.2"/><path id="bread" class="taco" d="M17.5 17.6c1 .9 2.6.1 2.5-1.2l-2.8-46.6s0-5.9-5.9-7H11s-18.3 0-24.1.2c-1.2 0-3.2 1.3-3.5 4.7-.7 3.6-2 44.2-2 44.3-.1 1-1.3 11 3.9 4.8s14.8-14.1 32.2.8z"/><path id="bread_2" class="taco" d="M-15.5 17.5C-12.8 14.9-4 4.4 13.1-.2 19.2-2.1 20.2-6 20.2-8v-8.8s0-4.9-4.1-7.8S-7.2-36.3-7.2-36.3s-9.1-3.9-10.1 3.9-1.5 49.2-1.5 49.2 0 3.9 3.3.7z"/></symbol><g id="Tacos"><use xlink:href="#Taco" width="45.4" height="75" id="XMLID_1_" x="-22.7" y="-37.8" transform="rotate(-36.44 172.115 -94.544)" overflow="visible"/><use xlink:href="#Taco" width="45.4" height="75" x="-22.7" y="-37.8" transform="matrix(.24 .97 .97 -.24 91.813 224.75)" overflow="visible"/><use xlink:href="#Taco" width="45.4" height="75" x="-22.7" y="-37.8" transform="rotate(12.52 -557.433 1088.887)" overflow="visible"/></g></svg>